<svg xmlns="http://www.w3.org/2000/svg" viewBox="0 0 1000 1000"><path fill="#a54" d="M.01.51H999.5V1000H.01z"/><path fill="#fff" d="M580.18 706.56L34.6 591.91l.03-67.42 194.42-21.88 496.25 71.55 1.75 54.67-129.8 29.42-.01 42.92-17.06 5.39zm130.17-175.39l-481.34-64.29v-62.71l197.56-7.84 423.32 32.93v34.49l-126.21 9.8.78 53.31-14.11 4.31zM846.9 398.11l-420.47-34.04-2.83-54.41 171.02-15.72 368.73 9.46 1.56 29.92-109.05 14.2 3.08 46.21-12.04 4.38zM67.42 877.75q10.71 0 16.64 7.32T90 905.78q0 13.4-6 20.8T67.42 934a23.4 23.4 0 0 1-9.69-2 18.25 18.25 0 0 1-7.37-6h-.6L48 933h-5.9v-77.17h8.23v18.75q0 6.3-.4 11.31h.4q5.78-8.13 17.09-8.14zm-1.19 6.9q-8.43 0-12.15 4.83t-3.72 16.3q0 11.46 3.82 16.39t12.25 4.93q7.59 0 11.31-5.53t3.72-15.89q0-10.62-3.72-15.82t-11.51-5.21zM137.8 933l-1.63-7.74h-.4q-4.07 5.12-8.11 6.92a24.68 24.68 0 0 1-10.09 1.82q-8.08 0-12.68-4.17T100.31 918q0-16.47 26.33-17.26l9.23-.3v-3.37q0-6.4-2.76-9.45c-1.83-2-4.77-3.05-8.8-3.05q-6.8 0-15.37 4.16l-2.53-6.29a39.42 39.42 0 0 1 18.4-4.67q9.72 0 14.41 4.32t4.68 13.84V933zm-18.6-5.81q7.69 0 12.08-4.21t4.39-11.81v-4.91l-8.23.35q-9.82.35-14.16 3t-4.34 8.41c0 3 .9 5.24 2.7 6.79s4.36 2.39 7.56 2.39zm66.46-49.53a32 32 0 0 1 6.5.59l-1.16 7.64a27.82 27.82 0 0 0-6-.75 14.48 14.48 0 0 0-11.28 5.36 19.51 19.51 0 0 0-4.69 13.34V933h-8.23v-54.35h6.79l.94 10.06h.4a24 24 0 0 1 7.29-8.18 16.38 16.38 0 0 1 9.44-2.87zm41.47 0a32.07 32.07 0 0 1 6.5.59l-1.14 7.64a27.91 27.91 0 0 0-6-.75 14.49 14.49 0 0 0-11.28 5.36 19.51 19.51 0 0 0-4.69 13.34V933h-8.23v-54.35h6.79l.95 10.06h.39a24 24 0 0 1 7.29-8.18 16.41 16.41 0 0 1 9.42-2.87zm15.97-13.74a5.47 5.47 0 0 1 1.39-4.15 5.14 5.14 0 0 1 6.89 0 5.36 5.36 0 0 1 1.44 4.12 5.45 5.45 0 0 1-1.44 4.14 4.8 4.8 0 0 1-3.42 1.36 4.73 4.73 0 0 1-3.47-1.36 5.55 5.55 0 0 1-1.39-4.11zM252 933h-8.24v-54.35H252zm54.69 0v-35.16q0-6.65-3-9.92t-9.47-3.27q-8.54 0-12.5 4.61t-4 15.23V933h-8.23v-54.35h6.69l1.34 7.44h.4a16.77 16.77 0 0 1 7.09-6.23 23.05 23.05 0 0 1 10.17-2.2q9.82 0 14.78 4.73t5 15.15V933zm69.63-54.35v5.2L366.25 885a17.68 17.68 0 0 1 3.57 10.87q0 8-5.45 12.74t-15 4.77a25.29 25.29 0 0 1-4.56-.4q-5.26 2.78-5.26 7a3.55 3.55 0 0 0 1.83 3.3q1.85 1.07 6.3 1.07h9.63q8.82 0 13.56 3.72t4.74 10.81q0 9-7.24 13.76t-21.13 4.74q-10.67 0-16.45-4a12.8 12.8 0 0 1-5.79-11.15 12.57 12.57 0 0 1 3.17-8.58 16.19 16.19 0 0 1 8.93-4.91 8.62 8.62 0 0 1-3.5-2.92 7.78 7.78 0 0 1-1.41-4.62 8.76 8.76 0 0 1 1.59-5.21 16.67 16.67 0 0 1 5-4.31 14.67 14.67 0 0 1-6.86-5.9 17.35 17.35 0 0 1-2.66-9.53q0-8.93 5.36-13.76t15.18-4.83a27.6 27.6 0 0 1 7.68 1zM333 942.13a7.38 7.38 0 0 0 3.72 6.7q3.72 2.28 10.67 2.28 10.36 0 15.35-3.1t5-8.41q0-4.41-2.73-6.12t-10.26-1.71h-9.87q-5.61 0-8.73 2.68t-3.15 7.68zm4.47-46.07q0 5.7 3.22 8.63t9 2.92q12 0 12.05-11.7 0-12.25-12.2-12.25-5.81 0-8.93 3.12t-3.17 9.28zM405 927.2a29.25 29.25 0 0 0 7.44-1v6.3a15 15 0 0 1-3.94 1.07 29.78 29.78 0 0 1-4.69.42q-15.78 0-15.77-16.62V885h-7.79v-4l7.79-3.42 3.47-11.61h4.76v12.6h15.77V885h-15.73v32q0 4.9 2.33 7.54a8.11 8.11 0 0 0 6.36 2.66zm65.26-21.42q0 13.29-6.7 20.75t-18.5 7.47a24.5 24.5 0 0 1-12.94-3.42 22.66 22.66 0 0 1-8.73-9.82 34.25 34.25 0 0 1-3.08-15q0-13.29 6.65-20.71t18.45-7.41q11.41 0 18.13 7.58t6.72 20.56zm-41.41 0q0 10.41 4.16 15.87t12.25 5.45q8.08 0 12.28-5.43t4.19-15.89q0-10.37-4.19-15.75t-12.38-5.38q-8.09 0-12.2 5.31t-4.11 15.82zM521.89 933v-35.16q0-6.65-3-9.92t-9.48-3.27q-8.52 0-12.49 4.61t-4 15.23V933h-8.24v-54.35h6.7l1.34 7.44h.4a16.77 16.77 0 0 1 7.09-6.23 23.05 23.05 0 0 1 10.17-2.2q9.81 0 14.78 4.73t5 15.15V933zm86.6-14.82q0 7.59-5.65 11.7T587 934q-10.82 0-16.87-3.42v-7.64a40.93 40.93 0 0 0 8.41 3.12 35.12 35.12 0 0 0 8.65 1.14q6.45 0 9.92-2.05a7.08 7.08 0 0 0 .72-11.71q-2.74-2.25-10.73-5.33a58.13 58.13 0 0 1-10.79-4.94 14.63 14.63 0 0 1-4.76-4.78A12.42 12.42 0 0 1 570 892a12.21 12.21 0 0 1 5.41-10.49q5.4-3.84 14.83-3.84a43.24 43.24 0 0 1 17.16 3.57l-2.93 6.69a39.29 39.29 0 0 0-14.83-3.37q-5.85 0-8.82 1.83a5.67 5.67 0 0 0-3 5.06 6.1 6.1 0 0 0 1.12 3.72 11 11 0 0 0 3.59 2.93 81.26 81.26 0 0 0 9.53 4q9.66 3.52 13.06 7.09a12.48 12.48 0 0 1 3.37 8.99zM644.85 934q-12.06 0-19-7.34t-7-20.39q0-13.14 6.47-20.88t17.38-7.73q10.23 0 16.17 6.72t6 17.73v5.2h-37.48q.24 9.59 4.83 14.54t12.93 5a43.87 43.87 0 0 0 17.35-3.67v7.34a44.41 44.41 0 0 1-8.25 2.7 46.12 46.12 0 0 1-9.4.78zm-2.23-49.45a13.44 13.44 0 0 0-10.44 4.26q-3.9 4.28-4.59 11.81H656q0-7.79-3.47-11.93t-9.91-4.14zm71.32 33.63q0 7.59-5.65 11.7T692.41 934q-10.81 0-16.86-3.42v-7.64a40.71 40.71 0 0 0 8.41 3.12 35.06 35.06 0 0 0 8.65 1.14q6.45 0 9.92-2.05a7.09 7.09 0 0 0 .72-11.71q-2.75-2.25-10.74-5.33a58.45 58.45 0 0 1-10.79-4.94 14.73 14.73 0 0 1-4.76-4.78 12.51 12.51 0 0 1-1.56-6.4 12.18 12.18 0 0 1 5.41-10.49q5.4-3.84 14.83-3.84a43.24 43.24 0 0 1 17.16 3.57l-2.93 6.69a39.33 39.33 0 0 0-14.87-3.37q-5.85 0-8.83 1.83a5.68 5.68 0 0 0-3 5.06 6.16 6.16 0 0 0 1.11 3.72 11.13 11.13 0 0 0 3.6 2.93 80.88 80.88 0 0 0 9.52 4q9.67 3.52 13.07 7.09a12.48 12.48 0 0 1 3.47 9zm48.46 0q0 7.59-5.66 11.7T740.87 934q-10.82 0-16.86-3.42v-7.64a40.84 40.84 0 0 0 8.4 3.12 35.2 35.2 0 0 0 8.66 1.14c4.3 0 7.6-.68 9.92-2.05a7.09 7.09 0 0 0 .72-11.71q-2.71-2.25-10.71-5.33a58.13 58.13 0 0 1-10.79-4.94 14.73 14.73 0 0 1-4.76-4.78 12.51 12.51 0 0 1-1.56-6.4 12.2 12.2 0 0 1 5.4-10.49q5.41-3.84 14.83-3.84a43.17 43.17 0 0 1 17.16 3.57l-2.92 6.69a39.37 39.37 0 0 0-14.83-3.37c-3.9 0-6.85.61-8.83 1.83a5.69 5.69 0 0 0-3 5.06 6.17 6.17 0 0 0 1.12 3.72 10.92 10.92 0 0 0 3.6 2.93 80.11 80.11 0 0 0 9.52 4q9.68 3.52 13.07 7.09a12.53 12.53 0 0 1 3.39 9zm12.69-54.26a5.51 5.51 0 0 1 1.39-4.15 5.15 5.15 0 0 1 6.9 0 5.39 5.39 0 0 1 1.43 4.12 5.49 5.49 0 0 1-1.43 4.14 5.06 5.06 0 0 1-6.9 0 5.59 5.59 0 0 1-1.39-4.11zM784 933h-8.23v-54.35H784zm64.4-27.22q0 13.29-6.69 20.75T823.2 934a24.5 24.5 0 0 1-12.94-3.42 22.66 22.66 0 0 1-8.73-9.82 34.25 34.25 0 0 1-3.07-15q0-13.29 6.64-20.71t18.45-7.41q11.41 0 18.13 7.58t6.72 20.56zm-41.41 0q0 10.41 4.16 15.87t12.25 5.45q8.08 0 12.28-5.43t4.19-15.89q0-10.37-4.19-15.75t-12.38-5.38q-8.09 0-12.2 5.31t-4.1 15.82zM900 933v-35.16q0-6.65-3-9.92t-9.48-3.27q-8.52 0-12.49 4.61t-4 15.23V933h-8.24v-54.35h6.7l1.34 7.44h.4a16.77 16.77 0 0 1 7.09-6.23 23.05 23.05 0 0 1 10.17-2.2q9.81 0 14.78 4.73t5 15.15V933zm60.25-14.82q0 7.59-5.66 11.7T938.72 934q-10.82 0-16.86-3.42v-7.64a40.84 40.84 0 0 0 8.4 3.12 35.14 35.14 0 0 0 8.66 1.14c4.3 0 7.6-.68 9.92-2.05a7.09 7.09 0 0 0 .72-11.71q-2.76-2.25-10.74-5.33a58.13 58.13 0 0 1-10.82-4.94 14.73 14.73 0 0 1-4.76-4.78 12.51 12.51 0 0 1-1.56-6.4 12.2 12.2 0 0 1 5.4-10.49q5.42-3.84 14.83-3.84a43.17 43.17 0 0 1 17.16 3.57l-2.92 6.69a39.37 39.37 0 0 0-14.83-3.37c-3.9 0-6.85.61-8.83 1.83a5.69 5.69 0 0 0-3 5.06 6.17 6.17 0 0 0 1.12 3.72 11 11 0 0 0 3.59 2.93 81.26 81.26 0 0 0 9.53 4q9.68 3.52 13.07 7.09a12.53 12.53 0 0 1 3.45 9z"/></svg>