<?xml version="1.0" encoding="utf-8"?>
<!-- Generator: Adobe Illustrator 16.0.4, SVG Export Plug-In . SVG Version: 6.00 Build 0)  -->
<!DOCTYPE svg PUBLIC "-//W3C//DTD SVG 1.1//EN" "http://www.w3.org/Graphics/SVG/1.1/DTD/svg11.dtd">
<svg version="1.1" id="Your_Icon" xmlns="http://www.w3.org/2000/svg" xmlns:xlink="http://www.w3.org/1999/xlink" x="0px" y="0px"
	 width="100px" height="100px" viewBox="0 0 100 100" enable-background="new 0 0 100 100" xml:space="preserve">
<path fill="#FFFFFF" d="M97.327,10H2.673C1.197,10,0,11.197,0,12.673V25v62.327C0,88.803,1.197,90,2.673,90h94.653
	c1.476,0,2.673-1.197,2.673-2.673V25V12.673C100,11.197,98.803,10,97.327,10z M95,85H5V30h90V85z M5,25V15h90v10H5z"/>
<circle fill="#FFFFFF" cx="10" cy="20" r="2"/>
<circle fill="#FFFFFF" cx="17.5" cy="20" r="2"/>
<circle fill="#FFFFFF" cx="25" cy="20" r="2"/>
<path fill="#FFFFFF" d="M32.116,73.384c-0.764,0.765-2.004,0.765-2.768,0L15.61,59.645c-0.909-0.908-0.909-2.382,0-3.289
	l13.739-13.739c0.764-0.764,2.004-0.764,2.768,0l0.643,0.643c0.833,0.833,0.833,2.184,0,3.018L21.143,57.893
	c-0.059,0.06-0.059,0.155,0,0.215l11.741,11.74c0.764,0.765,0.764,2.004,0,2.769L32.116,73.384z"/>
<path fill="#FFFFFF" d="M68.02,73.384c0.764,0.765,2.004,0.765,2.768,0l13.738-13.739c0.91-0.908,0.91-2.381,0-3.289L70.787,42.616
	c-0.764-0.764-2.004-0.764-2.768,0l-0.644,0.643c-0.833,0.833-0.833,2.184,0,3.018l11.616,11.616c0.059,0.06,0.059,0.155,0,0.215
	l-11.741,11.74c-0.765,0.765-0.765,2.004,0,2.769L68.02,73.384z"/>
<path fill="#FFFFFF" d="M61.389,41.954c-0.138-0.501-0.468-0.927-0.918-1.184l-0.943-0.539c-0.938-0.536-2.133-0.21-2.67,0.728
	L38.8,72.561c-0.258,0.45-0.325,0.984-0.189,1.485c0.137,0.501,0.467,0.927,0.917,1.185l0.943,0.539
	c0.938,0.535,2.134,0.209,2.67-0.729L61.2,43.44C61.457,42.989,61.525,42.454,61.389,41.954z"/>
</svg>
