<svg xmlns="http://www.w3.org/2000/svg" width="100" height="100" viewBox="0 0 100 100"><path fill="#fff" d="M97.327 10H2.673C1.197 10 0 11.197 0 12.673v74.654C0 88.803 1.197 90 2.673 90h94.653c1.476 0 2.673-1.197 2.673-2.673V12.673C100 11.197 98.802 10 97.326 10zM95 85H5V30h90v55zM5 25V15h90v10H5z"/><circle fill="#fff" cx="10" cy="20" r="2"/><circle fill="#fff" cx="17.5" cy="20" r="2"/><circle fill="#fff" cx="25" cy="20" r="2"/><path fill="#fff" d="M32.116 73.384c-.764.765-2.004.765-2.768 0L15.61 59.644c-.91-.907-.91-2.38 0-3.288l13.74-13.74c.763-.763 2.003-.763 2.767 0l.643.644c.833.833.833 2.184 0 3.018L21.143 57.893c-.06.06-.06.155 0 .215l11.74 11.74c.765.765.765 2.004 0 2.77l-.767.766zM68.02 73.384c.764.765 2.004.765 2.768 0l13.738-13.74c.91-.907.91-2.38 0-3.288l-13.74-13.74c-.763-.764-2.003-.764-2.767 0l-.645.643c-.833.832-.833 2.183 0 3.017L78.99 57.893c.06.06.06.155 0 .215l-11.74 11.74c-.765.765-.765 2.004 0 2.77l.77.766zM61.39 41.954c-.14-.5-.47-.927-.92-1.184l-.942-.54c-.938-.535-2.133-.21-2.67.73L38.8 72.56c-.258.45-.325.985-.19 1.486.138.5.468.927.918 1.185l.943.54c.94.535 2.135.21 2.67-.73l18.06-31.6c.257-.45.325-.986.19-1.486z"/></svg>