<svg xmlns="http://www.w3.org/2000/svg" viewBox="0 0 1000 1000"><path fill="#014983" stroke="#000" stroke-miterlimit="10" d="M-.5.5h1000v1000H-.5z"/><path fill="#fff" d="M224.57 690l179.86-90V499.56l30-29.56V350l20-20 45.15-279.78L544.43 330l20 20v119.56l30 30V600l179.87 90 .13 259.78H224.72L224.57 690z"/><path fill="#014983" d="M308.56 920.81Q295 920.81 285 917a43.69 43.69 0 0 1-16.24-10.47 47.8 47.8 0 0 1-10-16.85 98.17 98.17 0 0 1-5.18-21.58 211.71 211.71 0 0 1-1.41-26.1v-50q0-72.47 57.49-72.47 13.77 0 23.9 4.13A39.63 39.63 0 0 1 350 735.67a55.29 55.29 0 0 1 9.47 18.56 99.57 99.57 0 0 1 3.75 24.62q.1 2 .11 6H335.1V779a113.93 113.93 0 0 0-.72-12 50.31 50.31 0 0 0-2.2-9.86 21.47 21.47 0 0 0-4.35-7.88 19.44 19.44 0 0 0-7.32-4.84 29.38 29.38 0 0 0-10.85-1.82q-8.6 0-14.48 3.14a21.25 21.25 0 0 0-9 9.14 46.43 46.43 0 0 0-4.47 13.22 94.29 94.29 0 0 0-1.32 16.79v63.44q0 7 .44 12.72t1.49 11.57a40.09 40.09 0 0 0 3.08 10.18 33.57 33.57 0 0 0 5.07 7.77 19.54 19.54 0 0 0 7.6 5.29 28.35 28.35 0 0 0 10.52 1.81 25.6 25.6 0 0 0 12.22-2.75 22.92 22.92 0 0 0 8.21-7.1 34.78 34.78 0 0 0 4.79-11.07 83.15 83.15 0 0 0 2.37-13.33q.6-6.6.6-15.09v-7.05h-28.22v-20.91H365v98.46h-21.2l-7.05-21.15q-8.25 23.13-28.19 23.13zm130.07 0q-14.86 0-25.5-4.51a39.19 39.19 0 0 1-16.9-13.22 58 58 0 0 1-9.15-20.43 115.69 115.69 0 0 1-2.86-27.26V783.8a113.54 113.54 0 0 1 2.86-27.09 56.33 56.33 0 0 1 9.15-20.1 38.13 38.13 0 0 1 16.9-12.83q10.64-4.29 25.5-4.3 28.85 0 41.63 16.52T493 783.8v71.59a112.83 112.83 0 0 1-2.92 27 59.26 59.26 0 0 1-9.2 20.48A39.37 39.37 0 0 1 464 916.24q-10.61 4.58-25.37 4.57zm-20.54-32q5.67 8.93 20.54 8.92t20.54-8.92q5.67-8.93 5.67-26.32v-85.74q0-17.18-5.62-25.66t-20.59-8.48q-15 0-20.6 8.48t-5.61 25.66v85.69q0 17.4 5.67 26.32zm150.28 32a62.69 62.69 0 0 1-21.92-3.52 41.48 41.48 0 0 1-15.53-9.75 48 48 0 0 1-9.86-15.54 84.91 84.91 0 0 1-5.34-19.88 166.51 166.51 0 0 1-1.54-23.9V792a166.61 166.61 0 0 1 1.54-23.9 85 85 0 0 1 5.34-19.88 47.35 47.35 0 0 1 9.86-15.47 41.89 41.89 0 0 1 15.53-9.75 62.68 62.68 0 0 1 21.92-3.53q13.77 0 23.79 4.08a37.2 37.2 0 0 1 16 12 56 56 0 0 1 9 18.4 103 103 0 0 1 3.58 24.45c.08 1.39.11 3.56.11 6.49h-28.14v-6.27c-.08-3.89-.22-7.22-.44-10a75.23 75.23 0 0 0-1.21-8.54 23.81 23.81 0 0 0-2.59-7.32 24.61 24.61 0 0 0-4.3-5.4 15.58 15.58 0 0 0-6.55-3.63 33.2 33.2 0 0 0-9.25-1.16 28.59 28.59 0 0 0-11.73 2.2 20 20 0 0 0-7.66 5.68 24.79 24.79 0 0 0-4.24 9.3 67.9 67.9 0 0 0-1.92 11.4q-.45 5.56-.44 13.71v70.49a123.54 123.54 0 0 0 .6 12.78 58.69 58.69 0 0 0 2.37 11.4 32.31 32.31 0 0 0 4.57 9.52 20.55 20.55 0 0 0 7.49 6.23 24.08 24.08 0 0 0 11 2.36 22.47 22.47 0 0 0 10.79-2.42 19.81 19.81 0 0 0 7.11-6.17 29.69 29.69 0 0 0 4.07-9.58 68.65 68.65 0 0 0 1.93-11.34q.43-5.5.44-12.78v-7h28.15v7a119.63 119.63 0 0 1-2.69 26.87 60.82 60.82 0 0 1-8.71 20.43 38 38 0 0 1-16.3 13.5q-10.29 4.66-24.83 4.66zm122.14 0q-14.87 0-25.5-4.51a39.25 39.25 0 0 1-16.9-13.22 57.77 57.77 0 0 1-9.11-20.43 115.66 115.66 0 0 1-2.87-27.26V783.8a113.51 113.51 0 0 1 2.87-27.09 56.14 56.14 0 0 1 9.14-20.1A38.18 38.18 0 0 1 665 723.78q10.63-4.29 25.5-4.3 28.86 0 41.63 16.52t12.78 47.8v71.59a112.83 112.83 0 0 1-2.92 27 59.26 59.26 0 0 1-9.2 20.48 39.4 39.4 0 0 1-16.9 13.33q-10.63 4.62-25.38 4.61zm-20.54-32q5.67 8.93 20.54 8.92t20.54-8.92q5.67-8.93 5.67-26.32v-85.74q0-17.18-5.62-25.66t-20.59-8.48q-15 0-20.6 8.48t-5.61 25.66v85.69q0 17.4 5.7 26.32z"/></svg>