<?xml version="1.0" encoding="utf-8"?>
<!-- Generator: Adobe Illustrator 16.0.4, SVG Export Plug-In . SVG Version: 6.00 Build 0)  -->
<!DOCTYPE svg PUBLIC "-//W3C//DTD SVG 1.1//EN" "http://www.w3.org/Graphics/SVG/1.1/DTD/svg11.dtd">
<svg version="1.1" id="Layer_1" xmlns="http://www.w3.org/2000/svg" xmlns:xlink="http://www.w3.org/1999/xlink" x="0px" y="0px"
	 width="240px" height="173.373px" viewBox="0 0 240 173.373" enable-background="new 0 0 240 173.373" xml:space="preserve">
<g>
	<g>
		<path fill="#ECF0F1" d="M26.563,12.543C26.596,12.536,76.692,0,119.99,0c43.258,0,93.4,12.533,93.441,12.55
			c18.445,4.258,29.943,22.656,25.68,41.1c-3.117,13.502-13.818,23.273-26.562,25.871L171.951,51.8
			c-0.76-4.376-0.682-8.971,0.379-13.568c0.619-2.689,1.551-5.224,2.73-7.595c-15.293-1.635-34.879-3.147-55.068-3.147
			c-20.186,0-39.761,1.513-55.053,3.147c1.18,2.367,2.109,4.901,2.73,7.595c1.056,4.598,1.141,9.192,0.383,13.568L6.491,66.009
			c-2.601-3.598-4.547-7.762-5.604-12.359C-3.375,35.206,8.124,16.808,26.563,12.543z M161.185,33.081
			c8.525,34.162,28.652,63.732,55.969,84.256v56.036H22.824v-56.036c27.321-20.523,47.448-50.094,55.969-84.256
			c4.404-0.368,9.021-0.703,13.779-0.981v14.272h54.833V32.1C152.169,32.378,156.779,32.713,161.185,33.081z M162.326,102.816
			c0-23.38-18.953-42.335-42.334-42.335c-23.381,0-42.334,18.955-42.334,42.335s18.953,42.336,42.333,42.336
			C143.373,145.152,162.326,126.196,162.326,102.816z M147.406,102.816c0,15.144-12.273,27.417-27.414,27.417
			c-15.142,0-27.416-12.273-27.416-27.417S104.85,75.4,119.992,75.4C135.132,75.397,147.406,87.673,147.406,102.816z"/>
	</g>
</g>
</svg>
