<svg xmlns="http://www.w3.org/2000/svg" viewBox="0 0 384.21 384.21">
  <title>schedu-icon-Artboard 1</title>
  <rect width="384.21" height="384.21" style="fill: #215128"/>
  <g>
    <polygon points="384.21 137.08 384.21 384.21 213.55 384.21 150.39 321.05 179.88 273.49 214.28 273.49 245.1 242.67 245.1 168.3 310.29 63.16 384.21 137.08" style="fill: #1c3d1f"/>
    <polygon points="91.55 258.71 150.48 317.64 128.54 212.91 91.55 258.71" style="fill: #1c3d1f"/>
    <polygon points="156.74 63.16 337.35 243.77 235.54 345.58 110.93 220.97 110.93 77.58 156.74 63.16" style="fill: #1c3d1f"/>
  </g>
  <path d="M234,321.05H150.39v0L112.1,282.33c.45-.59.88-1.18,1.3-1.77,20.77-29,9.43-52.17,9.43-52.17-3.9,8.6-25.81,28-31.28,30.32V97.6H73.92V63.16h82.82V97.6H139.11V242.47l31,31h44.15l30.82-30.82V97.6H227.47V63.16h82.82V97.6H292.65V261.44L234,321v0" style="fill: #fff"/>
</svg>
