<svg xmlns="http://www.w3.org/2000/svg" viewBox="0 0 384.21 384.21"><path fill="#215128" d="M0 0h384.21v384.21H0z"/><g fill="#1c3d1f"><path d="M384.21 137.08v247.13H213.55l-63.16-63.16 29.49-47.56h34.4l30.82-30.82V168.3l65.19-105.14 73.92 73.92zM91.55 258.71l58.93 58.93-21.94-104.73-36.99 45.8z"/><path d="M156.74 63.16l180.61 180.61-101.81 101.81-124.61-124.61V77.58l45.81-14.42z"/></g><path fill="#fff" d="M234 321.05h-83.61l-38.29-38.72c.45-.59.88-1.18 1.3-1.77 20.77-29 9.43-52.17 9.43-52.17-3.9 8.6-25.81 28-31.28 30.32V97.6H73.92V63.16h82.82V97.6h-17.63v144.87l31 31h44.15l30.82-30.82V97.6h-17.61V63.16h82.82V97.6h-17.64v163.84L234 321"/></svg>