<svg class="custom-icon" xmlns="http://www.w3.org/2000/svg" viewBox="0 0 100 100" style="height:100px;width:100px"><path class="inner-shape" d="M69.1 25.5H30.9c-2.975 0-5.387 2.413-5.387 5.39v38.22c0 2.977 2.412 5.39 5.387 5.39h38.2c2.975 0 5.387-2.413 5.387-5.39V30.89c0-2.977-2.413-5.39-5.387-5.39zM49.973 40.592c5.178 0 9.376 4.2 9.376 9.38 0 5.18-4.2 9.38-9.377 9.38s-9.376-4.199-9.376-9.38 4.197-9.38 9.376-9.38zm18.783 26.215c0 1.083-.876 1.96-1.958 1.96H33.17c-1.082 0-1.958-.877-1.958-1.96v-20.53h4.254c-.295 1.176-.452 2.404-.452 3.67 0 8.307 6.73 15.04 15.03 15.04s15.033-6.733 15.033-15.04c0-1.266-.158-2.494-.452-3.67h4.13v20.53zm.126-28.245c0 1.083-.877 1.96-1.96 1.96h-5.56c-1.083 0-1.96-.878-1.96-1.96v-5.565c0-1.082.878-1.96 1.96-1.96h5.56c1.083 0 1.96.878 1.96 1.96v5.565z" fill="#f7f7f7"/></svg>