<svg class="custom-icon" xmlns="http://www.w3.org/2000/svg" viewBox="0 0 100 100" style="height:100px;width:100px"><path class="inner-shape" d="M25.5 40.256l1.99 2.61s4.105-3.235 5.473-1.617c1.368 1.616 6.59 21.147 8.335 24.75 1.52 3.158 5.718 7.335 10.322 4.352 4.6-2.983 19.898-16.044 22.637-31.467 2.736-15.42-18.41-12.19-20.65 1.244 5.6-3.362 8.587 1.365 5.722 6.716-2.86 5.347-5.473 8.834-6.842 8.834-1.365 0-2.416-3.578-3.98-9.83-1.618-6.466-1.608-18.11-8.333-16.79C33.835 30.304 25.5 40.256 25.5 40.256z" fill="#f7f7f7"/></svg>